<svg xmlns="http://www.w3.org/2000/svg" xmlns:xlink="http://www.w3.org/1999/xlink" width="20" height="20"><defs><path id="a" fill-rule="evenodd" d="M10 20C4.48 20 0 15.52 0 10S4.48 0 10 0s10 4.48 10 10-4.48 10-10 10zm0-17.5c-4.14 0-7.5 3.36-7.5 7.5 0 4.14 3.36 7.5 7.5 7.5 4.14 0 7.5-3.36 7.5-7.5 0-4.14-3.36-7.5-7.5-7.5zm2.51 10H10 8.75h-.01c-.69 0-1.24-.55-1.24-1.24V7.49c0-.69.55-1.24 1.24-1.24h.02c.69 0 1.24.55 1.24 1.24v1.89c0 .34.28.62.63.62h1.88c.69 0 1.24.55 1.24 1.24v.02c0 .69-.55 1.24-1.24 1.24z"/></defs><use xlink:href="#a" fill="#54666E"/><use xlink:href="#a" fill="#BBBFC1"/></svg>