<?xml version="1.0" encoding="utf-8"?>
<svg xmlns="http://www.w3.org/2000/svg"
	xmlns:xlink="http://www.w3.org/1999/xlink"
	width="20px" height="20px">
<defs>
<path id="symbol0" fill-rule="evenodd" d="M 10 20C 4.48 20 0 15.52 0 10 0 4.48 4.48 0 10 0 15.52 0 20 4.48 20 10 20 15.52 15.52 20 10 20ZM 10 2.5C 5.86 2.5 2.5 5.86 2.5 10 2.5 14.14 5.86 17.5 10 17.5 14.14 17.5 17.5 14.14 17.5 10 17.5 5.86 14.14 2.5 10 2.5ZM 12.51 12.5C 12.51 12.5 10 12.5 10 12.5 10 12.5 8.75 12.5 8.75 12.5 8.75 12.5 8.74 12.5 8.74 12.5 8.05 12.5 7.5 11.95 7.5 11.26 7.5 11.26 7.5 7.49 7.5 7.49 7.5 6.8 8.05 6.25 8.74 6.25 8.74 6.25 8.76 6.25 8.76 6.25 9.45 6.25 10 6.8 10 7.49 10 7.49 10 9.38 10 9.38 10 9.72 10.28 10 10.63 10 10.63 10 12.51 10 12.51 10 13.2 10 13.75 10.55 13.75 11.24 13.75 11.24 13.75 11.26 13.75 11.26 13.75 11.95 13.2 12.5 12.51 12.5Z"/>
</defs>
<g>
<use xlink:href="#symbol0" fill="rgb(84,102,110)"/>
<use xlink:href="#symbol0" fill="rgb(187,191,193)"/>
</g>
</svg>